<?xml version="1.0" encoding="UTF-8" standalone="no"?>
<!-- Created with Inkscape (http://www.inkscape.org/) -->

<svg
   xmlns:dc="http://purl.org/dc/elements/1.1/"
   xmlns:cc="http://creativecommons.org/ns#"
   xmlns:rdf="http://www.w3.org/1999/02/22-rdf-syntax-ns#"
   xmlns:svg="http://www.w3.org/2000/svg"
   xmlns="http://www.w3.org/2000/svg"
   xmlns:sodipodi="http://sodipodi.sourceforge.net/DTD/sodipodi-0.dtd"
   xmlns:inkscape="http://www.inkscape.org/namespaces/inkscape"
   width="50mm"
   height="50mm"
   viewBox="0 0 50 50"
   version="1.1"
   id="svg8"
   inkscape:version="0.92.3 (2405546, 2018-03-11)"
   sodipodi:docname="python.svg"
   inkscape:export-filename="C:\Users\Emanu\Dropbox\Privat\Hemsida\Blogg\python.png"
   inkscape:export-xdpi="100"
   inkscape:export-ydpi="100">
  <defs
     id="defs2">
    <inkscape:path-effect
       effect="skeletal"
       id="path-effect4802"
       is_visible="true"
       pattern="#path4792"
       copytype="single_stretched"
       prop_scale="1.7296168"
       scale_y_rel="false"
       spacing="0"
       normal_offset="0"
       tang_offset="0"
       prop_units="false"
       vertical_pattern="false"
       fuse_tolerance="0" />
    <inkscape:path-effect
       effect="skeletal"
       id="path-effect4794"
       is_visible="true"
       pattern="M 0,5 C 0,2.24 2.24,0 5,0 7.76,0 10,2.24 10,5 10,7.76 7.76,10 5,10 2.24,10 0,7.76 0,5 Z"
       copytype="single_stretched"
       prop_scale="0.26458333"
       scale_y_rel="false"
       spacing="0"
       normal_offset="0"
       tang_offset="0"
       prop_units="false"
       vertical_pattern="false"
       fuse_tolerance="0" />
    <inkscape:path-effect
       effect="skeletal"
       id="path-effect4566"
       is_visible="true"
       pattern="#path4568"
       copytype="single_stretched"
       prop_scale="1.4883941"
       scale_y_rel="false"
       spacing="-2.7755576e-017"
       normal_offset="0"
       tang_offset="0"
       prop_units="false"
       vertical_pattern="false"
       fuse_tolerance="0" />
    <inkscape:path-effect
       effect="skeletal"
       id="path-effect4566-0"
       is_visible="true"
       pattern="#path4568-5"
       copytype="single_stretched"
       prop_scale="1.4827759"
       scale_y_rel="false"
       spacing="-2.7755576e-017"
       normal_offset="0"
       tang_offset="0"
       prop_units="false"
       vertical_pattern="false"
       fuse_tolerance="0" />
    <inkscape:path-effect
       effect="skeletal"
       id="path-effect4566-0-6"
       is_visible="true"
       pattern="#path4568-5"
       copytype="single_stretched"
       prop_scale="1.2187149"
       scale_y_rel="false"
       spacing="-2.7755576e-017"
       normal_offset="0"
       tang_offset="0"
       prop_units="false"
       vertical_pattern="false"
       fuse_tolerance="0" />
    <inkscape:path-effect
       effect="skeletal"
       id="path-effect4566-0-6-9"
       is_visible="true"
       pattern="#path4568-5"
       copytype="single_stretched"
       prop_scale="0.331057"
       scale_y_rel="false"
       spacing="-2.7755576e-017"
       normal_offset="0"
       tang_offset="0"
       prop_units="false"
       vertical_pattern="false"
       fuse_tolerance="0" />
    <inkscape:path-effect
       effect="skeletal"
       id="path-effect4566-0-6-6"
       is_visible="true"
       pattern="#path4568-5"
       copytype="single_stretched"
       prop_scale="0.21693436"
       scale_y_rel="false"
       spacing="-2.7755576e-017"
       normal_offset="0"
       tang_offset="0"
       prop_units="false"
       vertical_pattern="false"
       fuse_tolerance="0" />
    <inkscape:path-effect
       effect="skeletal"
       id="path-effect4566-0-8"
       is_visible="true"
       pattern="#path4568"
       copytype="single_stretched"
       prop_scale="0.33425129"
       scale_y_rel="false"
       spacing="-2.7755576e-017"
       normal_offset="0"
       tang_offset="0"
       prop_units="false"
       vertical_pattern="false"
       fuse_tolerance="0" />
    <inkscape:path-effect
       effect="skeletal"
       id="path-effect4566-0-6-0"
       is_visible="true"
       pattern="#path4568-5"
       copytype="single_stretched"
       prop_scale="1.2187149"
       scale_y_rel="false"
       spacing="-2.7755576e-017"
       normal_offset="0"
       tang_offset="0"
       prop_units="false"
       vertical_pattern="false"
       fuse_tolerance="0" />
  </defs>
  <sodipodi:namedview
     id="base"
     pagecolor="#ffffff"
     bordercolor="#666666"
     borderopacity="1.0"
     inkscape:pageopacity="0.47843137"
     inkscape:pageshadow="2"
     inkscape:zoom="3.959798"
     inkscape:cx="59.02403"
     inkscape:cy="103.23436"
     inkscape:document-units="mm"
     inkscape:current-layer="layer1"
     showgrid="false"
     inkscape:pagecheckerboard="true"
     borderlayer="false"
     inkscape:showpageshadow="false"
     inkscape:window-width="1920"
     inkscape:window-height="1017"
     inkscape:window-x="-8"
     inkscape:window-y="-8"
     inkscape:window-maximized="1" />
  <metadata
     id="metadata5">
    <rdf:RDF>
      <cc:Work
         rdf:about="">
        <dc:format>image/svg+xml</dc:format>
        <dc:type
           rdf:resource="http://purl.org/dc/dcmitype/StillImage" />
        <dc:title></dc:title>
      </cc:Work>
    </rdf:RDF>
  </metadata>
  <g
     inkscape:label="Layer 1"
     inkscape:groupmode="layer"
     id="layer1"
     transform="translate(0,-247)">
    <path
       style="fill:#000000;fill-opacity:0.99497483;stroke:none;stroke-width:0.26499999;stroke-linecap:butt;stroke-linejoin:round;stroke-miterlimit:4;stroke-dasharray:none;stroke-opacity:1"
       d="m 15.458924,276.32947 c 0.221023,0.045 0.440469,0.0843 0.658535,0.1169 0.972885,0.13029 1.881425,0.18901 2.63414,-0.0244 0.711363,-0.16481 1.402389,-0.62194 1.896814,-1.22724 0.787385,-0.91173 1.209199,-2.26342 1.548481,-3.71535 0,0 1e-6,0 1e-6,0 0.284747,-1.45347 0.536835,-2.81338 0.324101,-4.01297 -0.135766,-0.6089 -0.310581,-1.17489 -0.64041,-1.35427 0,0 -1e-6,0 -1e-6,0 -0.277416,-0.27631 -0.853721,-0.36364 -1.516624,-0.43868 -0.794581,-0.0556 -1.664137,0.0388 -2.594203,0.13743 -1e-6,0 -3e-6,0 -4e-6,0 -0.934975,0.10525 -1.92527,0.23642 -2.971502,0.26829 -0.886988,0.0482 -1.910913,-0.0287 -2.936555,-0.45168 -1.040879,-0.4878 -1.77783,-1.36302 -2.1062766,-2.37881 -0.455647,-1.51656 -0.3287495,-2.99533 -0.086822,-4.29118 0.4603678,-2.98757 2.0773048,-5.93113 4.8046578,-7.44303 2e-6,0 3e-6,-1e-5 3e-6,-1e-5 2.400352,-1.2643 5.302369,-1.16436 7.627475,0.0288 2.899833,1.51243 4.785221,4.36985 5.697197,7.36313 1.435321,4.69072 0.923584,9.69438 -0.247621,14.34951 0.939059,-4.70762 1.187814,-9.69715 -0.429605,-14.12326 -1.027704,-2.80305 -2.916945,-5.38335 -5.52906,-6.5385 -2.047614,-0.92028 -4.539472,-0.8728 -6.368242,0.25073 -2.152637,1.25133 -3.309855,3.84033 -3.631719,6.3872 -0.118131,1.23244 -0.205432,2.40982 0.179141,3.31926 0.187009,0.46958 0.555342,0.88062 0.964934,1.00438 0.503949,0.21908 1.185951,0.19123 1.944987,0.15516 1e-6,0 2e-6,0 3e-6,0 0.874397,-0.0655 1.785189,-0.23722 2.751549,-0.39148 1e-6,0 3e-6,0 4e-6,0 0.933923,-0.1556 1.938157,-0.30407 3.020028,-0.29889 0.93442,-0.0225 2.005278,0.18411 3.02873,0.82615 2e-6,0 3e-6,0 5e-6,0 1.098885,0.82595 1.709668,1.97513 1.89613,3.09031 0.348653,1.80903 0.175913,3.55887 -0.100536,5.11938 -10e-7,0 -10e-7,0 -2e-6,10e-6 -0.249742,1.7082 -0.787634,3.53324 -1.944078,5.18097 -0.878274,1.20234 -2.129036,2.1213 -3.599259,2.58812 -1.414847,0.41425 -2.81577,0.45325 -4.082534,0.30181 -0.184171,-0.0198 -0.366878,-0.0422 -0.548129,-0.067 -1.157618,-0.21289 -2.24463,-0.52081 -3.275838,-0.84236 -1.158146,-0.35603 -2.2459197,-0.73099 -3.3027352,-1.01006 -0.8877381,-0.20886 -1.6397275,-0.41437 -2.2388489,-0.33536 -5e-7,0 -1.1e-6,0 -1.6e-6,0 -0.3123868,0.0352 -0.654872,0.15385 -0.7057315,0.32432 -0.3977819,0.4486 -0.3602534,1.39873 -0.3846336,2.49632 -0.00906,1.28478 0.720125,2.63503 1.661093,3.85575 1.2125004,1.52365 2.8465725,2.76862 4.6203328,3.83365 4.282325,2.54972 9.319119,3.92497 14.384817,3.97597 2.609162,0.0236 5.232379,-0.32928 7.7001,-1.17841 2.49891,-0.85864 4.836769,-2.24454 6.751179,-4.0981 2.184114,-2.10975 3.801941,-4.80823 4.868382,-7.70367 1.400016,-3.80097 1.909943,-7.91454 1.943318,-11.99962 0.156504,4.08187 -0.159229,8.23607 -1.403807,12.18268 -0.949903,3.0112 -2.490598,5.88095 -4.691345,8.22371 -1.935961,2.0532 -4.347697,3.64926 -6.983886,4.6927 -10e-7,0 -3e-6,0 -4e-6,0 -2.595952,1.02608 -5.375829,1.54155 -8.155218,1.64128 -5.368539,0.19965 -10.824422,-1.00433 -15.628947,-3.5647 -2.0034987,-1.05829 -3.9351222,-2.41107 -5.5297178,-4.19525 -7e-7,0 -1.3e-6,0 -2e-6,-1e-5 -1.3055882,-1.42412 -2.3428188,-3.28961 -2.5636911,-5.4768 -0.1669359,-1.21372 -0.1283046,-2.74207 0.6571005,-4.30393 0.7323708,-1.15217 1.8585022,-1.83863 3.0644905,-1.9833 2.1e-6,0 4.2e-6,0 6.3e-6,0 1.3010618,-0.14578 2.4618417,0.0364 3.4262781,0.27068 1.3e-6,0 2.7e-6,0 4e-6,0 1.2297885,0.26741 2.3840555,0.60299 3.4858225,0.88768 0.917912,0.23346 1.802977,0.44667 2.65775,0.57607 z"
       id="path4556"
       inkscape:connector-curvature="0"
       sodipodi:nodetypes="czzzc"
       inkscape:path-effect="#path-effect4566"
       inkscape:original-d="M 27.479983,273.24001 C 32.883257,249.34224 12.602528,245.51106 10.662767,259.09948 8.7230066,272.68791 26.73595,255.80622 23.745585,271.76954 20.75522,287.73286 2.9213791,268.06815 3.7160637,280.7855 4.5107483,293.50285 47.59698,305.49868 46.952474,267.38157" />
    <path
       style="opacity:1;vector-effect:none;fill:#000000;fill-opacity:0.99497483;fill-rule:evenodd;stroke:none;stroke-width:0.26499999;stroke-linecap:butt;stroke-linejoin:round;stroke-miterlimit:4;stroke-dasharray:none;stroke-dashoffset:0;stroke-opacity:1;paint-order:markers fill stroke"
       d="m 23.782071,246.57896 -22.1412796,-1.20833 22.0634896,-1.30521 23.56688,1.37209 z"
       id="path4568"
       inkscape:connector-curvature="0"
       sodipodi:nodetypes="ccccc" />
    <path
       inkscape:connector-curvature="0"
       id="path4593"
       d="m 21.51654,253.70234 h 0.264583"
       style="stroke-width:0.26458332" />
    <path
       style="fill:#000000;fill-opacity:0.99497483;stroke:none;stroke-width:0.26499999;stroke-linecap:butt;stroke-linejoin:round;stroke-miterlimit:4;stroke-dasharray:none;stroke-opacity:1"
       d="m 17.594521,254.51828 c 0.580655,0.1303 1.157846,0.26021 1.731571,0.38973 0.929841,0.26498 1.956768,0.72772 2.385537,1.54959 -0.630348,-0.67759 -1.586743,-0.75134 -2.481207,-0.81338 -0.575145,0.0253 -1.147112,0.051 -1.7159,0.077 0.0269,-0.40097 0.05357,-0.80196 0.08,-1.20298 z"
       id="path4556-9-9"
       inkscape:connector-curvature="0"
       sodipodi:nodetypes="cc"
       inkscape:path-effect="#path-effect4566-0-6"
       inkscape:original-d="m 17.542728,255.11879 c 0,0 3.197402,-0.0519 4.184667,1.32752" />
    <path
       style="opacity:1;vector-effect:none;fill:#000000;fill-opacity:0.99497483;fill-rule:evenodd;stroke:none;stroke-width:0.17371936;stroke-linecap:butt;stroke-linejoin:round;stroke-miterlimit:4;stroke-dasharray:none;stroke-dashoffset:0;stroke-opacity:1;paint-order:markers fill stroke"
       d="m 19.43005,240.33094 6.496637,0.5112 -6.46286,0.47938 z"
       id="path4568-5"
       inkscape:connector-curvature="0"
       sodipodi:nodetypes="cccc" />
    <path
       style="fill:#000000;stroke:none;stroke-width:0.26458332px;stroke-linecap:butt;stroke-linejoin:miter;stroke-opacity:1"
       d="m -4.5153683,243.53023 c -1.1251359,-0.0836 -3.8679794,-0.58735 -3.8941349,-0.52388 -0.028523,0.0825 2.3341855,0.57943 2.3185335,0.89383 -0.015652,0.31441 -2.3115629,0.95271 -2.288696,1.00291 0.046311,0.0687 2.6396254,-0.59633 3.8618735,-0.69324 1.2222481,-0.0969 7.333803,-0.36933 7.333803,-0.36933 -0.1314951,-0.15854 -6.2062431,-0.22674 -7.3313791,-0.31029 z"
       id="path4792"
       inkscape:connector-curvature="0"
       sodipodi:nodetypes="zczczcz" />
    <path
       style="fill:#5e0000;fill-opacity:1;stroke:#5e0000;stroke-width:0.117;stroke-linecap:butt;stroke-linejoin:miter;stroke-opacity:1;stroke-miterlimit:4;stroke-dasharray:none"
       d="m 6.6065098,265.16439 c -0.8283442,0.067 -3.0118163,-0.26886 -3.0022203,-0.15775 0.016438,0.14336 1.9231872,0.53486 2.0468327,1.06469 0.1236498,0.52984 -1.2116851,2.018 -1.173348,2.09761 0.062835,0.10616 1.5970293,-1.47696 2.4244938,-1.86676 0.3457372,-0.16286 1.2880332,-0.53473 2.2453388,-0.96021 1.3997782,-0.61928 2.4709402,-1.58421 2.4709402,-1.58421 -0.140877,-0.0879 -1.345362,0.60448 -2.6740891,0.93665 -0.9957824,0.24421 -1.9928541,0.44202 -2.3379481,0.46998 z"
       id="path4800"
       inkscape:connector-curvature="0"
       inkscape:path-effect="#path-effect4802"
       inkscape:original-d="m 4.0304276,266.59015 c 4.6970324,-1.26461 6.2746184,-1.4992 7.7131444,-2.68008"
       sodipodi:nodetypes="cc" />
  </g>
</svg>
