<?xml version="1.0" encoding="UTF-8" standalone="no"?>
<!-- Created with Inkscape (http://www.inkscape.org/) -->

<svg
   xmlns:dc="http://purl.org/dc/elements/1.1/"
   xmlns:cc="http://creativecommons.org/ns#"
   xmlns:rdf="http://www.w3.org/1999/02/22-rdf-syntax-ns#"
   xmlns:svg="http://www.w3.org/2000/svg"
   xmlns="http://www.w3.org/2000/svg"
   xmlns:sodipodi="http://sodipodi.sourceforge.net/DTD/sodipodi-0.dtd"
   xmlns:inkscape="http://www.inkscape.org/namespaces/inkscape"
   width="140.98512mm"
   height="140.98512mm"
   viewBox="0 0 140.9851 140.98512"
   version="1.1"
   id="svg8"
   inkscape:version="0.92.3 (2405546, 2018-03-11)"
   sodipodi:docname="atom.svg">
  <defs
     id="defs2">
    <inkscape:path-effect
       effect="skeletal"
       id="path-effect4698"
       is_visible="true"
       pattern="#path4538"
       copytype="single_stretched"
       prop_scale="1"
       scale_y_rel="false"
       spacing="0"
       normal_offset="0"
       tang_offset="0"
       prop_units="false"
       vertical_pattern="false"
       fuse_tolerance="0" />
    <inkscape:path-effect
       effect="skeletal"
       id="path-effect4691"
       is_visible="true"
       pattern="#path4538"
       copytype="single_stretched"
       prop_scale="1"
       scale_y_rel="false"
       spacing="0"
       normal_offset="0"
       tang_offset="0"
       prop_units="false"
       vertical_pattern="false"
       fuse_tolerance="0" />
    <inkscape:path-effect
       effect="skeletal"
       id="path-effect4684"
       is_visible="true"
       pattern="#path4538"
       copytype="single_stretched"
       prop_scale="1"
       scale_y_rel="false"
       spacing="0"
       normal_offset="0"
       tang_offset="0"
       prop_units="false"
       vertical_pattern="false"
       fuse_tolerance="0" />
    <inkscape:path-effect
       effect="skeletal"
       id="path-effect4638"
       is_visible="true"
       pattern="#path4538"
       copytype="single_stretched"
       prop_scale="1"
       scale_y_rel="false"
       spacing="0"
       normal_offset="0"
       tang_offset="0"
       prop_units="false"
       vertical_pattern="false"
       fuse_tolerance="0" />
    <inkscape:path-effect
       effect="skeletal"
       id="path-effect4621"
       is_visible="true"
       pattern="M 0,0 H 1"
       copytype="single_stretched"
       prop_scale="1"
       scale_y_rel="false"
       spacing="0"
       normal_offset="0"
       tang_offset="0"
       prop_units="false"
       vertical_pattern="false"
       fuse_tolerance="0" />
    <inkscape:path-effect
       effect="skeletal"
       id="path-effect4540"
       is_visible="true"
       pattern="M 108.47987,-61.102496 A 4.2522325,36.096726 30 0 1 94.114046,-27.715693 4.2522325,36.096726 30 0 1 72.383144,1.4188671 4.2522325,36.096726 30 0 1 86.748962,-31.967926 4.2522325,36.096726 30 0 1 108.47987,-61.102496 Z"
       copytype="single_stretched"
       prop_scale="3.2035275"
       scale_y_rel="false"
       spacing="0"
       normal_offset="0"
       tang_offset="0"
       prop_units="false"
       vertical_pattern="true"
       fuse_tolerance="0" />
    <inkscape:path-effect
       effect="skeletal"
       id="path-effect4536"
       is_visible="true"
       pattern="M 0,0 H 1"
       copytype="single_stretched"
       prop_scale="1"
       scale_y_rel="false"
       spacing="0"
       normal_offset="0"
       tang_offset="0"
       prop_units="false"
       vertical_pattern="false"
       fuse_tolerance="0" />
  </defs>
  <sodipodi:namedview
     id="base"
     pagecolor="#ffffff"
     bordercolor="#666666"
     borderopacity="1.0"
     inkscape:pageopacity="0.0"
     inkscape:pageshadow="2"
     inkscape:zoom="0.7"
     inkscape:cx="587.10081"
     inkscape:cy="271.31516"
     inkscape:document-units="mm"
     inkscape:current-layer="layer1"
     showgrid="false"
     inkscape:window-width="1920"
     inkscape:window-height="1017"
     inkscape:window-x="-8"
     inkscape:window-y="-8"
     inkscape:window-maximized="1" />
  <metadata
     id="metadata5">
    <rdf:RDF>
      <cc:Work
         rdf:about="">
        <dc:format>image/svg+xml</dc:format>
        <dc:type
           rdf:resource="http://purl.org/dc/dcmitype/StillImage" />
        <dc:title />
      </cc:Work>
    </rdf:RDF>
  </metadata>
  <g
     inkscape:label="Layer 1"
     inkscape:groupmode="layer"
     id="layer1"
     transform="translate(-26.913649,-57.637539)">
    <path
       style="opacity:1;vector-effect:none;fill:#01050b;fill-opacity:1;fill-rule:evenodd;stroke:none;stroke-width:5.00376511;stroke-linecap:butt;stroke-linejoin:round;stroke-miterlimit:4;stroke-dasharray:none;stroke-dashoffset:0;stroke-opacity:0.9898477;paint-order:markers fill stroke"
       d="m 208.72113,131.07775 c 0.0293,-5.79696 -33.1045,-1.16159 -35.90781,-4.26132 1.47195,-1.87187 13.26607,-1.10116 22.94228,-1.21928 7.03462,-0.0859 12.94987,-0.64152 12.96572,-3.02387 z"
       id="path4538"
       inkscape:connector-curvature="0"
       sodipodi:nodetypes="ccscc" />
    <rect
       style="opacity:1;vector-effect:none;fill:#000000;fill-opacity:0;fill-rule:evenodd;stroke:none;stroke-width:22.60606003;stroke-linecap:round;stroke-linejoin:miter;stroke-miterlimit:4;stroke-dasharray:none;stroke-dashoffset:0;stroke-opacity:1;paint-order:markers fill stroke"
       id="rect2026"
       width="140.98512"
       height="140.98512"
       x="26.913649"
       y="57.637539" />
    <g
       id="g2024"
       transform="translate(-0.1002587,1.0022624)">
      <circle
         r="19.087797"
         cy="127.66666"
         cx="97.51786"
         id="path815"
         style="opacity:1;vector-effect:none;fill:#cd5858;fill-opacity:1;fill-rule:evenodd;stroke:none;stroke-width:4.93400002;stroke-linecap:butt;stroke-linejoin:round;stroke-miterlimit:4;stroke-dasharray:none;stroke-dashoffset:0;stroke-opacity:1;paint-order:markers fill stroke" />
      <path
         inkscape:original-d="m 81.431561,180.49618 c -1.512193,-2.86318 -3.062304,-6.37044 -4.896672,-10.86896 -4.060542,-9.95786 -5.953083,-26.07853 -5.953083,-41.96056 0,-15.88204 1.892542,-32.002712 7.889388,-46.70907 2.124237,-5.209369 4.791919,-10.310161 8.738685,-14.319269 1.4798,-1.503176 3.157201,-2.834216 5.053018,-3.759 1.633789,-0.796967 3.437157,-1.269259 5.254963,-1.269259 1.817807,0 3.62117,0.472292 5.25496,1.269259 1.89582,0.924784 3.57322,2.255824 5.05302,3.759 3.94677,4.009108 6.61445,9.1099 8.73869,14.319269 5.99684,14.706358 7.88938,30.82703 7.88938,46.70907 0,15.88203 -1.89254,32.00271 -7.88938,46.70906 -2.12424,5.20937 -4.79192,10.31016 -8.73869,14.31927 -1.4798,1.50318 -3.1572,2.83422 -4.92201,3.69509 -1.7648,0.86088 -3.568163,1.33317 -5.38597,1.33317 -1.817806,0 -3.621174,-0.47229 -5.385981,-1.33317 -1.764807,-0.86088 -3.442204,-2.19192 -4.922,-3.69509 -2.163796,-2.19798 -3.943135,-4.72408 -5.778318,-8.19881"
         inkscape:path-effect="#path-effect4691"
         sodipodi:nodetypes="ccsssssscsssccscsc"
         inkscape:connector-curvature="0"
         id="path817"
         d="m 85.192284,178.5116 c -0.262644,0.12571 0.02088,3.81004 3.907727,8.32265 1.064167,1.22343 2.42748,2.58541 4.050583,3.46747 1.284856,0.69746 2.804647,1.26626 4.367258,1.31654 1.413066,0.0773 2.966938,-0.27255 4.538838,-0.96483 1.56073,-0.68504 3.03793,-1.80536 4.50184,-3.20604 3.58269,-3.43522 6.24256,-8.0446 8.63077,-13.63245 5.58664,-13.14754 8.05513,-28.43285 8.11758,-46.14828 0.0336,-15.21375 -1.68063,-31.416476 -7.77167,-46.289341 -2.11453,-5.140261 -4.70639,-10.113681 -8.51347,-13.947407 0,0 -10e-6,-1.4e-5 -10e-6,-1.4e-5 -1.42269,-1.433512 -2.99811,-2.686553 -4.74707,-3.529345 0,0 -2e-5,-9e-6 -2e-5,-9e-6 -1.50248,-0.725204 -3.140368,-1.155154 -4.756761,-1.147083 0,0 -1.9e-5,10e-7 -1.9e-5,10e-7 -1.62323,-0.0033 -3.259092,0.434973 -4.750495,1.160023 -1.752475,0.850524 -3.322855,2.111221 -4.731616,3.537863 -3.83365,3.879805 -6.408174,8.907704 -8.474049,13.950919 -6.335003,15.538282 -7.780757,32.232573 -7.841708,46.264393 -0.03078,8.55972 0.429325,16.13644 1.290838,23.07012 0.98733,7.89034 2.189515,13.50112 4.118657,18.64798 1.583234,4.22563 2.710806,6.89003 4.294041,11.11566 -1.334876,-1.81428 -3.054177,-4.9888 -5.543683,-10.60609 -2.254874,-5.10056 -3.747967,-10.9586 -4.90086,-18.88309 -1.024242,-6.99635 -1.594656,-14.69387 -1.628565,-23.34458 -0.06696,-14.20027 1.409117,-31.187461 7.932667,-47.193549 2.106579,-5.194712 4.863209,-10.479117 9.024146,-14.7234 1.543942,-1.573804 3.338307,-2.989218 5.403675,-4.001972 1.779417,-0.871138 3.767495,-1.385972 5.806952,-1.389936 0,0 1.4e-5,1e-6 1.4e-5,1e-6 2.0307,0.0085 4.016526,0.523566 5.800986,1.402096 0,0 1e-5,6e-6 1e-5,6e-6 2.05186,1.011814 3.84097,2.425013 5.38914,4.00994 0,0 1e-5,1e-5 1e-5,1e-5 4.10188,4.202106 6.84915,9.433523 8.98759,14.726495 0,10e-7 1e-5,1.2e-5 1e-5,1.2e-5 4.5931,11.314233 6.7578,23.270197 7.58664,34.985197 0.29071,4.10891 0.41675,8.18638 0.42455,12.1851 0.0605,17.94318 -2.28532,33.53189 -7.68249,47.30432 0,0 -1e-5,1e-5 -1e-5,1e-5 -2.28393,5.86512 -5.02347,10.91836 -8.87312,15.02873 -1.57547,1.68524 -3.34175,3.13331 -5.36662,4.1959 -1.97149,1.0348 -4.103727,1.62818 -6.26671,1.70411 -2.400229,0.0478 -4.605771,-0.53926 -6.433292,-1.36266 -2.410824,-1.08901 -4.355249,-2.6073 -5.804904,-3.94189 -5.249775,-4.80388 -7.027613,-8.37583 -7.608148,-8.11316 2.506958,-1.32339 5.01388,-2.64686 7.520768,-3.97042 z"
         style="opacity:1;vector-effect:none;fill:#1b6436;fill-opacity:1;fill-rule:evenodd;stroke:none;stroke-width:4.93400002;stroke-linecap:butt;stroke-linejoin:round;stroke-miterlimit:4;stroke-dasharray:none;stroke-dashoffset:0;stroke-opacity:0.97969546;paint-order:markers fill stroke" />
      <path
         inkscape:original-d="m 152.93224,112.53946 c -1.52443,2.9182 -3.41937,5.6643 -5.43981,8.26756 -9.73766,12.5466 -22.7523,22.24592 -36.50655,30.18694 -13.754241,7.94102 -28.661429,14.36237 -44.395922,16.52213 -5.573567,0.76504 -11.32482,1.00516 -16.770197,-0.40829 -2.041692,-0.52996 -4.033106,-1.31711 -5.781894,-2.49654 l -5e-6,-10e-6 c -1.507091,-1.01642 -2.817788,-2.34203 -3.726691,-3.9163 -0.908903,-1.57426 -1.401572,-3.37217 -1.528271,-5.18556 -2e-6,0 -4e-6,0 -7e-6,-1e-5 -0.147013,-2.10421 0.167003,-4.2224 0.728888,-6.25553 1.498608,-5.42255 4.582181,-10.28323 8.031509,-14.72756 h -10e-7 c 9.737659,-12.5466 22.752298,-22.24592 36.50654,-30.18694 13.75425,-7.941017 28.661431,-14.362364 44.395931,-16.522122 5.57357,-0.765041 11.32482,-1.005157 16.7702,0.408289 2.04169,0.529956 4.0331,1.317108 5.7819,2.496542 1.50708,1.016419 2.81778,2.342036 3.72669,3.916302 0.9089,1.574267 1.40157,3.372171 1.52827,5.185558 0.14702,2.104221 -0.16699,4.222411 -0.72888,6.255541 -0.6208,2.24631 -1.51359,4.39619 -2.5917,6.46"
         inkscape:path-effect="#path-effect4684"
         sodipodi:nodetypes="cssssccccccccsssccscc"
         style="opacity:1;vector-effect:none;fill:#1b6436;fill-opacity:1;fill-rule:evenodd;stroke:none;stroke-width:4.93400002;stroke-linecap:butt;stroke-linejoin:round;stroke-miterlimit:4;stroke-dasharray:none;stroke-dashoffset:0;stroke-opacity:0.97969546;paint-order:markers fill stroke"
         d="m 149.16393,110.56933 c 0.35226,0.20156 2.12961,-1.38952 3.58579,-5.25657 0.53888,-1.45171 1.07282,-3.35258 1.04306,-5.31696 -0.0173,-1.360889 -0.27942,-2.886543 -0.99037,-4.247679 -0.61089,-1.214619 -1.61942,-2.371664 -2.93862,-3.344523 -1.39926,-1.033593 -3.13038,-1.803771 -5.1131,-2.385591 -4.71808,-1.38602 -10.01238,-1.409295 -16.09701,-0.686051 -14.07168,1.703411 -28.52908,7.143228 -44.025502,16.009124 -13.137628,7.53952 -26.346123,17.12181 -36.209246,29.86642 -10e-7,0 8.86e-4,-9.2e-4 8.85e-4,-9.2e-4 l 0,0 c -3.390659,4.39538 -6.405762,9.1285 -7.823978,14.34687 l 0,0 -6e-6,2e-5 0,0 c -0.530572,1.9496 -0.828394,3.94366 -0.683202,5.88467 -2.3e-5,-0.003 -5.2e-5,-0.005 -8.5e-5,-0.008 l 0,0 c 0,0 1e-6,2e-5 1e-6,2e-5 0.123101,1.66372 0.569612,3.29789 1.385358,4.69476 l 0,0 1e-5,1e-5 0,0 c 0.810725,1.4106 2.010688,2.61022 3.388092,3.53988 -0.0023,-0.002 -0.0046,-0.003 -0.0069,-0.005 l 0,0 c 1.612758,1.09235 3.489805,1.82227 5.430912,2.32921 l 0,0 c 5.273135,1.37895 10.911234,1.09657 16.320209,0.36232 l 0,0 c 16.554294,-2.27505 31.700295,-9.32431 43.98151,-16.35264 l 0,0 c 0,0 1e-5,-1e-5 1e-5,-1e-5 l 0,0 c 18.72097,-10.74647 29.33598,-20.77331 36.623,-29.54766 l 0,0 c 3.19075,-3.84145 4.64646,-6.1087 5.90559,-7.90809 -0.59923,1.73179 -2.05419,4.66229 -4.94092,8.6568 -6.64192,9.18909 -17.58788,19.94375 -36.39215,30.86968 l 0,0 c -12.372571,7.21223 -27.794266,14.37355 -44.843088,16.71486 l 0,0 c -5.560574,0.77354 -11.511483,1.02552 -17.26173,-0.45457 l 0,0 c -2.135591,-0.55046 -4.257858,-1.3968 -6.16648,-2.67838 l -10e-7,0 c -0.0025,-0.002 -0.0051,-0.003 -0.0076,-0.005 -1.641217,-1.10566 -3.077889,-2.56808 -4.098334,-4.32785 l 0,0 -7e-6,-1e-5 0,0 c -1.008034,-1.76285 -1.554466,-3.73977 -1.685848,-5.72322 0,0 -10e-7,-2e-5 -10e-7,-2e-5 l 0,0 c -4.6e-5,-0.003 -8.8e-5,-0.006 -1.26e-4,-0.008 -0.149082,-2.27897 0.180494,-4.53193 0.778006,-6.66247 l 0,0 3e-6,-1e-5 0,0 c 1.58887,-5.65708 4.748459,-10.65339 8.257974,-15.14638 0,0 8e-6,-1e-5 8e-6,-1e-5 l 0,0 c 0,0 9.66e-4,-0.001 9.67e-4,-0.001 6.827009,-8.77028 15.111489,-16.05395 23.850158,-22.23548 4.264492,-3.0166 8.637445,-5.77057 12.987738,-8.29572 15.630079,-9.102436 30.281059,-14.817498 44.806809,-17.032856 0,0 1e-5,0 1e-5,0 6.27887,-0.971764 12.01173,-1.117379 17.47546,0.142872 2.33259,0.539697 4.51568,1.391472 6.47207,2.622926 1.88033,1.186915 3.41868,2.738998 4.53256,4.515145 1.24051,2.023889 1.8554,4.185546 2.06826,6.153249 0.29749,2.769974 -0.0342,5.304714 -0.42737,7.211784 0,1e-5 0,1e-5 0,1e-5 -0.97431,4.85663 -2.09561,7.37645 -1.64544,7.64878 -2.51236,-1.3131 -5.02478,-2.6261 -7.53726,-3.93901 z"
         id="path4673"
         inkscape:connector-curvature="0" />
      <path
         inkscape:original-d="m 41.668984,92.773896 c 0.698364,-0.77876 1.501065,-1.46656 2.368883,-2.051837 -10e-7,-2e-6 -2e-6,-4e-6 5e-6,-1.1e-5 0.735632,-0.496125 1.514195,-0.922839 2.321371,-1.290195 1.111698,-0.505948 2.277673,-0.899304 3.460521,-1.206335 5.44537,-1.413442 11.196629,-1.17333 21.850664,0.28907 10.654035,1.4624 25.561212,7.883748 39.315462,15.824762 13.75424,7.94102 26.76888,17.64034 36.50654,30.18694 3.44933,4.44434 6.5329,9.30501 8.03151,14.72757 0.56189,2.03313 0.8759,4.15132 0.72888,6.25554 -0.1267,1.81338 -0.61937,3.61129 -1.52827,5.18556 -0.90891,1.57426 -2.2196,2.89988 -3.72669,3.9163 -1.7488,1.17943 -3.74021,1.96659 -5.7819,2.49654 -5.44538,1.41345 -11.19663,1.17333 -16.77019,0.40829 -15.73451,-2.15976 -30.641686,-8.58111 -44.395936,-16.52213 -13.754245,-7.94101 -26.768892,-17.64034 -36.506545,-30.18693 -3.449328,-4.44433 -6.532904,-9.305 -8.031509,-14.72756 -0.561887,-2.03314 -0.875903,-4.15133 -0.739039,-6.110135 0.136865,-1.958805 0.629528,-3.756707 1.538435,-5.330975 0.385533,-0.667766 0.843362,-1.290795 1.357808,-1.864464"
         inkscape:path-effect="#path-effect4698"
         sodipodi:nodetypes="ccccccsccscccssssccc"
         inkscape:connector-curvature="0"
         id="path4675"
         d="m 44.834051,95.613594 c -0.202401,-0.19176 -0.827389,-0.05147 -1.572246,0.728308 -0.657895,0.652574 -1.346972,1.861561 -1.692303,3.822848 -0.258291,1.43373 -0.165411,3.14391 0.280086,5.26863 0.924772,4.37719 3.229666,8.88403 7.147801,14.24508 2e-6,0 8e-6,1e-5 8e-6,1e-5 7.909339,10.7631 19.417649,20.7271 35.667188,30.25071 12.744145,7.44501 27.723175,14.27386 43.931655,16.4907 5.46348,0.7386 11.08798,0.99789 16.34089,-0.38628 1.9493,-0.51302 3.82672,-1.24993 5.43757,-2.34632 1.37912,-0.9374 2.57479,-2.14225 3.38023,-3.55213 0.81528,-1.40472 1.25654,-3.04293 1.37505,-4.7042 0,0 0,-2e-5 0,-2e-5 0.13983,-1.94247 -0.16502,-3.93422 -0.69833,-5.87517 0,0 -1e-5,-2e-5 -1e-5,-2e-5 -1.43732,-5.23743 -4.48283,-9.97004 -7.85196,-14.32104 -10.0561,-12.94328 -23.48239,-22.51175 -36.18416,-29.87281 -7.12001,-4.1189 -13.945425,-7.537511 -20.656396,-10.324962 -6.591534,-2.730274 -12.349096,-4.683054 -18.202929,-5.544412 -5e-6,-10e-7 -9e-6,-10e-7 -1.4e-5,-2e-6 -4.897715,-0.722876 -8.748315,-1.245965 -12.75968,-1.400462 -3.403482,-0.129811 -6.265301,0.1137 -8.813993,0.683393 -1.282702,0.28617 -2.411745,0.635006 -3.428464,1.040491 0,0 -7e-6,3e-6 -7e-6,3e-6 -0.889878,0.354792 -1.663252,0.740045 -2.341357,1.135651 m -0.15475,-0.229484 c -3.5e-5,-3.8e-5 -4.8e-5,-5.7e-5 -4.7e-5,-5.5e-5 m 0.151175,0.224187 c -1.109143,0.645613 -1.936209,1.313302 -2.526838,1.821593 0.409403,-0.62114 1.114957,-1.46427 2.199162,-2.307455 m 0.176466,0.261692 c -10e-7,-10e-7 -1.8e-5,-2.9e-5 -4.4e-5,-8.8e-5 M 43.85753,90.454645 c 0.64155,-0.497958 1.40497,-0.993824 2.304419,-1.456288 0,0 4e-6,-2e-6 4e-6,-2e-6 1.018025,-0.523312 2.177108,-0.990152 3.499556,-1.382524 2.608226,-0.772604 5.615349,-1.197568 9.147079,-1.197424 4.090128,-0.0021 8.105128,0.416959 13.007277,1.03663 6.109625,0.777801 12.120929,2.701662 18.811012,5.418084 6.840514,2.769305 13.789733,6.205918 20.999083,10.357599 12.88521,7.40606 26.52936,17.19564 36.86457,30.52093 3.4748,4.46417 6.64648,9.48123 8.23114,15.1712 0,0 0,10e-6 0,10e-6 0.59195,2.12822 0.91832,4.38608 0.7634,6.67262 0,0 0,2e-5 0,2e-5 -0.13526,1.97788 -0.6838,3.9528 -1.69579,5.7142 -1.02225,1.75471 -2.46019,3.21394 -4.1068,4.31665 0,0 -1e-5,1e-5 -1e-5,1e-5 -1.90307,1.27273 -4.02096,2.1144 -6.16008,2.66199 0,0 -1e-5,0 -1e-5,0 -5.71312,1.46049 -11.63455,1.21481 -17.24193,0.43213 -5.41722,-0.74696 -10.67916,-1.97554 -15.7629,-3.54819 -10.53562,-3.25917 -20.363157,-8.01726 -29.133258,-13.02558 -16.621463,-9.45874 -28.527143,-19.34172 -37.35789,-30.16239 -4.409374,-5.37437 -7.241132,-10.20139 -8.912574,-15.24214 -10e-7,0 -10e-7,0 -10e-7,-1e-5 -0.817176,-2.455 -1.19098,-4.75412 -1.189957,-6.97189 -0.0014,-2.879699 0.711166,-5.178136 1.404763,-6.85389 0.790978,-1.851487 1.413304,-2.731786 1.174614,-2.98144 2.110007,1.893169 4.220275,3.78605 6.330804,5.678644"
         style="opacity:1;vector-effect:none;fill:#1b6436;fill-opacity:1;fill-rule:evenodd;stroke:none;stroke-width:4.93400002;stroke-linecap:butt;stroke-linejoin:round;stroke-miterlimit:4;stroke-dasharray:none;stroke-dashoffset:0;stroke-opacity:0.97969546;paint-order:markers fill stroke" />
      <circle
         cx="41.766369"
         cy="92.514877"
         r="4.6654153"
         id="path4530"
         style="opacity:1;vector-effect:none;fill:#007385;fill-opacity:1;fill-rule:evenodd;stroke:none;stroke-width:3.38339353;stroke-linecap:butt;stroke-linejoin:round;stroke-miterlimit:4;stroke-dasharray:none;stroke-dashoffset:0;stroke-opacity:0.84924622;paint-order:markers fill stroke" />
      <circle
         style="opacity:1;vector-effect:none;fill:#007385;fill-opacity:1;fill-rule:evenodd;stroke:none;stroke-width:3.38339353;stroke-linecap:butt;stroke-linejoin:round;stroke-miterlimit:4;stroke-dasharray:none;stroke-dashoffset:0;stroke-opacity:0.84924622;paint-order:markers fill stroke"
         id="circle4532"
         cx="152.79688"
         cy="112.64211"
         r="4.6654153" />
      <circle
         r="4.6774554"
         cy="178.92967"
         cx="80.745163"
         id="circle4534"
         style="opacity:1;vector-effect:none;fill:#007385;fill-opacity:1;fill-rule:evenodd;stroke:none;stroke-width:3.39212513;stroke-linecap:butt;stroke-linejoin:round;stroke-miterlimit:4;stroke-dasharray:none;stroke-dashoffset:0;stroke-opacity:0.84924622;paint-order:markers fill stroke" />
    </g>
  </g>
</svg>
