<?xml version="1.0" encoding="UTF-8" standalone="no"?>
<!-- Created with Inkscape (http://www.inkscape.org/) -->

<svg
   xmlns:dc="http://purl.org/dc/elements/1.1/"
   xmlns:cc="http://creativecommons.org/ns#"
   xmlns:rdf="http://www.w3.org/1999/02/22-rdf-syntax-ns#"
   xmlns:svg="http://www.w3.org/2000/svg"
   xmlns="http://www.w3.org/2000/svg"
   xmlns:sodipodi="http://sodipodi.sourceforge.net/DTD/sodipodi-0.dtd"
   xmlns:inkscape="http://www.inkscape.org/namespaces/inkscape"
   width="40mm"
   height="40mm"
   viewBox="0 0 40 40"
   version="1.1"
   id="svg8"
   inkscape:version="0.92.3 (2405546, 2018-03-11)"
   sodipodi:docname="email.svg">
  <defs
     id="defs2" />
  <sodipodi:namedview
     id="base"
     pagecolor="#ffffff"
     bordercolor="#666666"
     borderopacity="1.0"
     inkscape:pageopacity="0.0"
     inkscape:pageshadow="2"
     inkscape:zoom="4"
     inkscape:cx="78.812475"
     inkscape:cy="78.566652"
     inkscape:document-units="mm"
     inkscape:current-layer="layer1"
     showgrid="false"
     showguides="true"
     inkscape:guide-bbox="true"
     inkscape:showpageshadow="false"
     inkscape:window-width="1920"
     inkscape:window-height="1017"
     inkscape:window-x="-8"
     inkscape:window-y="-8"
     inkscape:window-maximized="1" />
  <metadata
     id="metadata5">
    <rdf:RDF>
      <cc:Work
         rdf:about="">
        <dc:format>image/svg+xml</dc:format>
        <dc:type
           rdf:resource="http://purl.org/dc/dcmitype/StillImage" />
        <dc:title></dc:title>
      </cc:Work>
    </rdf:RDF>
  </metadata>
  <g
     inkscape:label="Layer 1"
     inkscape:groupmode="layer"
     id="layer1"
     transform="translate(-91.339363,-113.81035)">
    <rect
       style="opacity:1;vector-effect:none;fill:#000000;fill-opacity:1;fill-rule:evenodd;stroke:#000000;stroke-width:1.97048807;stroke-linecap:round;stroke-linejoin:miter;stroke-miterlimit:4;stroke-dasharray:none;stroke-dashoffset:0;stroke-opacity:1;paint-order:markers fill stroke"
       id="rect845"
       width="38.067932"
       height="25.902344"
       x="92.305397"
       y="120.91799" />
    <path
       style="opacity:1;vector-effect:none;fill:#ffffff;fill-opacity:1;fill-rule:evenodd;stroke:none;stroke-width:0.11487094;stroke-linecap:butt;stroke-linejoin:round;stroke-miterlimit:4;stroke-dasharray:none;stroke-dashoffset:0;stroke-opacity:1;paint-order:markers fill stroke"
       d="m 93.135025,122.20181 v 2.95397 l 18.102455,11.30287 18.30622,-11.30759 v -2.94925 z m 36.408675,4.49436 -18.31329,11.3128 -18.095384,-11.29911 v 18.7147 H 129.5437 Z"
       id="rect10"
       inkscape:connector-curvature="0"
       sodipodi:nodetypes="cccccccccccc" />
    <rect
       style="opacity:1;vector-effect:none;fill:none;fill-opacity:1;fill-rule:evenodd;stroke:none;stroke-width:2.58143282;stroke-linecap:butt;stroke-linejoin:round;stroke-miterlimit:4;stroke-dasharray:none;stroke-dashoffset:0;stroke-opacity:1;paint-order:markers fill stroke"
       id="rect819"
       width="39.887054"
       height="25.441471"
       x="91.451279"
       y="113.81012" />
    <g
       aria-label="@"
       transform="matrix(0.78370742,0,0,0.78370742,-89.24186,83.680191)"
       style="font-style:normal;font-weight:normal;font-size:40px;line-height:1.25;font-family:sans-serif;text-align:end;letter-spacing:0px;word-spacing:0px;text-anchor:end;fill:#000000;fill-opacity:1;stroke:none"
       id="flowRoot834">
      <path
         d="m 305.92969,67.76665 h -0.0781 q -1.44531,3.515625 -4.49219,3.515625 -2.34375,0 -3.71093,-2.03125 -1.36719,-2.050781 -1.36719,-5.488281 0,-4.023438 1.89453,-6.484375 1.89453,-2.480469 4.98047,-2.480469 2.67578,0 5,0.917969 l -0.42969,8.125 q -0.0391,0.742187 -0.0391,1.347656 v 0.136719 q 0,3.4375 1.40625,3.4375 1.95312,0 1.95312,-7.480469 0,-5.429687 -2.16796,-8.515625 -2.16797,-3.085937 -5.83985,-3.085937 -4.41406,0 -6.89453,3.75 -2.46094,3.75 -2.46094,10.292968 0,6.09375 2.51953,9.433594 2.53907,3.320313 7.20704,3.320313 3.53515,0 6.75781,-1.523438 v 2.597656 q -3.08594,1.601563 -6.875,1.601563 -5.82031,0 -9.10156,-4.042969 -3.26172,-4.042969 -3.26172,-11.269531 0,-7.753906 3.26172,-12.265625 3.26171,-4.53125 8.88671,-4.53125 4.84375,0 7.73438,3.828125 2.91016,3.828125 2.91016,10.449219 0,4.511718 -1.25,7.246093 -1.25,2.714844 -3.47657,2.714844 -2.5,0 -3.0664,-3.515625 z M 305.01172,57.727588 Q 303.95703,57.317431 303,57.317431 q -1.73828,0 -2.67578,1.835938 -0.91797,1.816406 -0.91797,4.6875 0,4.921875 2.48047,4.921875 2.55859,0 2.83203,-6.09375 z"
         style="font-style:normal;font-variant:normal;font-weight:normal;font-stretch:normal;font-family:'Droid Sans Mono';-inkscape-font-specification:'Droid Sans Mono'"
         id="path842"
         inkscape:connector-curvature="0" />
    </g>
  </g>
</svg>
