<?xml version="1.0" encoding="UTF-8" standalone="no"?>
<!-- Created with Inkscape (http://www.inkscape.org/) -->

<svg
   xmlns:dc="http://purl.org/dc/elements/1.1/"
   xmlns:cc="http://creativecommons.org/ns#"
   xmlns:rdf="http://www.w3.org/1999/02/22-rdf-syntax-ns#"
   xmlns:svg="http://www.w3.org/2000/svg"
   xmlns="http://www.w3.org/2000/svg"
   xmlns:sodipodi="http://sodipodi.sourceforge.net/DTD/sodipodi-0.dtd"
   xmlns:inkscape="http://www.inkscape.org/namespaces/inkscape"
   version="1.1"
   id="svg2"
   xml:space="preserve"
   width="175.59921"
   height="175.59921"
   viewBox="0 0 175.59921 175.59922"
   sodipodi:docname="github_icon.svg"
   inkscape:version="0.92.3 (2405546, 2018-03-11)"><metadata
     id="metadata8"><rdf:RDF><cc:Work
         rdf:about=""><dc:format>image/svg+xml</dc:format><dc:type
           rdf:resource="http://purl.org/dc/dcmitype/StillImage" /><dc:title /></cc:Work></rdf:RDF></metadata><defs
     id="defs6" /><sodipodi:namedview
     pagecolor="#ffffff"
     bordercolor="#666666"
     borderopacity="1"
     objecttolerance="10"
     gridtolerance="10"
     guidetolerance="10"
     inkscape:pageopacity="0"
     inkscape:pageshadow="2"
     inkscape:window-width="1920"
     inkscape:window-height="1017"
     id="namedview4"
     showgrid="false"
     inkscape:zoom="4.005133"
     inkscape:cx="58.882052"
     inkscape:cy="102.08333"
     inkscape:window-x="-8"
     inkscape:window-y="-8"
     inkscape:window-maximized="1"
     inkscape:current-layer="g10" /><g
     id="g10"
     inkscape:groupmode="layer"
     inkscape:label="ink_ext_XXXXXX"
     transform="matrix(1.3333333,0,0,-1.3333333,-243.85267,444.15727)"><circle
       style="opacity:1;vector-effect:none;fill:#ffffff;fill-opacity:1;fill-rule:evenodd;stroke:none;stroke-width:6.04121637;stroke-linecap:round;stroke-linejoin:miter;stroke-miterlimit:4;stroke-dasharray:none;stroke-dashoffset:0;stroke-opacity:1;paint-order:markers fill stroke"
       id="path903"
       transform="scale(1,-1)"
       r="65.849709"
       cy="-267.26825"
       cx="248.73921" /><path
       inkscape:connector-curvature="0"
       id="path108"
       style="fill:#10415c;fill-opacity:1;fill-rule:evenodd;stroke:none;stroke-width:0.1"
       d="m 248.73972,327.58807 c -33.347,0 -60.388,-27.035 -60.388,-60.387 0,-26.681 17.303,-49.317 41.297,-57.3022 3.018,-0.5589 4.126,1.3102 4.126,2.9052 0,1.44 -0.056,6.197 -0.082,11.243 -16.8,-3.653 -20.345,7.125 -20.345,7.125 -2.747,6.98 -6.705,8.836 -6.705,8.836 -5.479,3.748 0.413,3.671 0.413,3.671 6.064,-0.425 9.257,-6.223 9.257,-6.223 5.386,-9.232 14.127,-6.563 17.573,-5.02 0.542,3.902 2.107,6.568 3.834,8.075 -13.413,1.527 -27.513,6.705 -27.513,29.844 0,6.593 2.359,11.98 6.222,16.209 -0.627,1.522 -2.694,7.663 0.585,15.981 0,0 5.071,1.623 16.611,-6.19 4.817,1.338 9.983,2.009 15.115,2.032 5.132,-0.023 10.302,-0.694 15.128,-2.032 11.526,7.813 16.59,6.19 16.59,6.19 3.287,-8.318 1.219,-14.459 0.592,-15.981 3.872,-4.229 6.215,-9.616 6.215,-16.209 0,-23.194 -14.127,-28.301 -27.574,-29.796 2.166,-1.874 4.096,-5.549 4.096,-11.183 0,-8.079 -0.07,-14.582 -0.07,-16.572 0,-1.607 1.087,-3.4899 4.148,-2.897 23.981,7.994 41.262,30.622 41.262,57.294 0,33.352 -27.037,60.387 -60.387,60.387" /><path
       inkscape:connector-curvature="0"
       id="path110"
       style="fill:#10415c;fill-opacity:1;fill-rule:nonzero;stroke:none;stroke-width:0.1"
       d="m 211.22372,240.88507 c -0.133,-0.301 -0.605,-0.39 -1.035,-0.184 -0.438,0.197 -0.684,0.606 -0.542,0.907 0.13,0.309 0.603,0.394 1.04,0.189 0.439,-0.198 0.689,-0.611 0.537,-0.912 v 0" /><path
       inkscape:connector-curvature="0"
       id="path112"
       style="fill:#10415c;fill-opacity:1;fill-rule:nonzero;stroke:none;stroke-width:0.1"
       d="m 213.66972,238.15707 c -0.288,-0.267 -0.851,-0.143 -1.233,0.279 -0.395,0.421 -0.469,0.984 -0.177,1.255 0.297,0.267 0.843,0.142 1.239,-0.279 0.395,-0.426 0.472,-0.985 0.171,-1.255 v 0" /><path
       inkscape:connector-curvature="0"
       id="path114"
       style="fill:#10415c;fill-opacity:1;fill-rule:nonzero;stroke:none;stroke-width:0.1"
       d="m 216.05072,234.67907 c -0.37,-0.257 -0.975,-0.016 -1.349,0.521 -0.37,0.537 -0.37,1.181 0.008,1.439 0.375,0.258 0.971,0.026 1.35,-0.507 0.369,-0.545 0.369,-1.19 -0.009,-1.453 v 0" /><path
       inkscape:connector-curvature="0"
       id="path116"
       style="fill:#10415c;fill-opacity:1;fill-rule:nonzero;stroke:none;stroke-width:0.1"
       d="m 219.31272,231.31907 c -0.331,-0.365 -1.036,-0.267 -1.552,0.231 -0.528,0.487 -0.675,1.178 -0.343,1.543 0.335,0.366 1.044,0.263 1.564,-0.231 0.524,-0.486 0.684,-1.182 0.331,-1.543 v 0" /><path
       inkscape:connector-curvature="0"
       id="path118"
       style="fill:#10415c;fill-opacity:1;fill-rule:nonzero;stroke:none;stroke-width:0.1"
       d="m 223.81272,229.36807 c -0.146,-0.473 -0.825,-0.688 -1.509,-0.487 -0.683,0.207 -1.13,0.761 -0.992,1.239 0.142,0.476 0.824,0.7 1.513,0.485 0.682,-0.206 1.13,-0.756 0.988,-1.237 v 0" /><path
       inkscape:connector-curvature="0"
       id="path120"
       style="fill:#10415c;fill-opacity:1;fill-rule:nonzero;stroke:none;stroke-width:0.1"
       d="m 228.75472,229.00607 c 0.017,-0.498 -0.563,-0.911 -1.281,-0.919 -0.722,-0.017 -1.306,0.386 -1.314,0.876 0,0.503 0.567,0.912 1.289,0.924 0.718,0.014 1.306,-0.386 1.306,-0.881 v 0" /><path
       inkscape:connector-curvature="0"
       id="path122"
       style="fill:#10415c;fill-opacity:1;fill-rule:nonzero;stroke:none;stroke-width:0.1"
       d="m 233.35372,229.78907 c 0.086,-0.486 -0.413,-0.985 -1.126,-1.117 -0.701,-0.129 -1.35,0.171 -1.439,0.653 -0.087,0.498 0.421,0.997 1.121,1.126 0.714,0.124 1.353,-0.168 1.444,-0.662 v 0" /></g></svg>